# xmcd
#
# Track frame offsets: 
#        150
#        15614
#        35064
#        49203
#        73552
#        86940
#        99517
#        126601
#        140446
#        168062
#
# Disc length: 2556 seconds
#
# Revision: 0
# Processed by: cddbd v1.5.2PL0 Copyright (c) Steve Scherf et al.
# Submitted via: ExactAudioCopy v1.0b3
#
DISCID=8c09fa0a
DTITLE=Various Artist - Guitararmageddon
DYEAR=2011
DGENRE=Blues
TTITLE0=Kid Andersen feat. Carsten Loly - Layla
TTITLE1=Lars Haavard Haugen  - It Is What It Is
TTITLE2=Ronnie Jacobsen - Crossroads
TTITLE3=Amund Maarud - Sunshine Of Your Love
TTITLE4=Kjetil Grande - Children Of The Revolution
TTITLE5=Frode Alnæs - You Really Got Me
TTITLE6=Ronnie Jacobsen feat. Adam Douglas - Gimme Shelter
TTITLE7=Gunnar "Keith" Sjursø - You Got Me Rocking
TTITLE8=Vidar Busk - I Don't live Today
TTITLE9=Knut Reiersrud - What A Wonderfuld World
EXTD=
EXTT0=
EXTT1=
EXTT2=
EXTT3=
EXTT4=
EXTT5=
EXTT6=
EXTT7=
EXTT8=
EXTT9=
PLAYORDER=
